<?xml version='1.0' encoding='iso-8859-1'?>
<!DOCTYPE svg PUBLIC '-//W3C//DTD SVG 1.1//EN' 'http://www.w3.org/Graphics/SVG/1.1/DTD/svg11.dtd'>
<svg version="1.1" xmlns="http://www.w3.org/2000/svg" viewBox="0 0 201.832 201.832" xmlns:xlink="http://www.w3.org/1999/xlink" enable-background="new 0 0 201.832 201.832">
  <g>
    <path d="m189.484,169.286l-29.383-70.935c4.978-9.356 7.81-20.018 7.81-31.333 0-36.954-30.054-67.018-66.994-67.018-36.941,0-66.994,30.063-66.994,67.017 0,11.315 2.832,21.977 7.809,31.333l-29.384,70.937c-1.161,2.802-0.519,6.028 1.626,8.173 2.145,2.145 5.371,2.787 8.173,1.626l30.929-12.81 12.812,30.925c1.161,2.802 3.896,4.629 6.929,4.629 3.034,0 5.769-1.828 6.929-4.63l21.171-51.114 21.176,51.116c1.161,2.802 3.896,4.629 6.929,4.629 3.034,0 5.769-1.828 6.93-4.63l12.808-30.926 30.928,12.81c2.804,1.161 6.029,0.518 8.174-1.626 2.142-2.145 2.784-5.371 1.622-8.173zm-88.567-154.286c28.67,0 51.994,23.335 51.994,52.019 0,28.657-23.325,51.971-51.996,51.971-28.668-0.001-51.992-23.316-51.992-51.973 7.10543e-15-28.683 23.325-52.017 51.994-52.017zm-28.102,159.733l-8.752-21.126c-1.586-3.827-5.974-5.645-9.799-4.059l-21.129,8.752 18.879-45.577c9.888,10.566 23.145,17.936 38.046,20.374l-17.245,41.636zm74.753-25.186c-1.838-0.761-3.902-0.761-5.74,0-1.838,0.762-3.298,2.222-4.06,4.06l-8.749,21.126-17.249-41.637c14.902-2.438 28.16-9.808 38.049-20.374l18.878,45.576-21.129-8.751z"/>
    <path d="m100.917,107.952c22.591-0.001 40.973-18.364 40.975-40.935 0-22.595-18.381-40.979-40.975-40.979-22.584,0.001-40.957,18.385-40.957,40.98 0,22.57 18.373,40.933 40.957,40.934zm0-66.914c14.323,0.001 25.975,11.655 25.975,25.979-0.002,14.3-11.654,25.935-25.974,25.936-14.313-0.002-25.958-11.636-25.958-25.935 0-14.325 11.645-25.979 25.957-25.98z"/>
  </g>
</svg>
